<svg width="15" height="14" viewBox="0 0 15 14" fill="none" xmlns="http://www.w3.org/2000/svg">
<path d="M7 0H6V1H7V0Z" fill="#162930"/>
<path d="M14 1H13V2H14V1Z" fill="#162930"/>
<path d="M8 7H7V8H8V7Z" fill="#26854C"/>
<path d="M10 7H9V8H10V7Z" fill="#26854C"/>
<path d="M6 9H5V10H6V9Z" fill="#26854C"/>
<path d="M12 10H11V11H12V10Z" fill="#26854C"/>
<path d="M5 11H4V12H5V11Z" fill="#62A477"/>
<path d="M11 11H10V12H11V11Z" fill="#26854C"/>
<path d="M4 12H3V13H4V12Z" fill="#26854C"/>
<path d="M5 12H4V13H5V12Z" fill="#7DB682"/>
<path d="M10 6H9H8H7V7H8V8H7V7H6H5H4V8V9H5H6V10H7H8H9H10H11H12V11H11V12H10H9H8H7H6H5V13H6H7H8H9H10H11H12V12H13V11V10V9V8V7H12H11H10V8H9V7H10V6Z" fill="#62A477"/>
<path d="M5 9H4V10V11H5V12H6H7H8H9H10V11H11V10H10H9H8H7H6H5V9Z" fill="#10121C"/>
<path d="M3 3V4V5V6V7H4H5H6H7V6V5V4V3H6H5H4H3Z" fill="#D3EED3"/>
<path d="M12 3H11V4V5V6V7H12H13H14V6V5V4V3H13H12Z" fill="#D3EED3"/>
<path d="M2 3V4V5V6V7H3V6V5V4V3H2Z" fill="#E6F6E6"/>
<path d="M11 3H10V4V5V6V7H11V6V5V4V3Z" fill="#E6F6E6"/>
<path d="M2 3H1V4V5V6V7H2V6V5V4V3Z" fill="#A6CB96"/>
<path d="M10 3H9V4V5V6H10V5V4V3Z" fill="#A6CB96"/>
<path d="M7 0V1H6H5H4H3H2V2H3H4H5H6H7H8V1V0H7Z" fill="#1E4044"/>
<path d="M1 0V1V2H2V1V0H1Z" fill="#10514C"/>
<path d="M1 0H0V1V2H1V1V0Z" fill="#162930"/>
<path d="M8 1V2V3H9V2V1H8Z" fill="#162930"/>
<path d="M9 1V2V3H10V2V1H9Z" fill="#10514C"/>
<path d="M14 1V2H13H12H11H10V3H11H12H13H14H15V2V1H14Z" fill="#1E4044"/>
<path d="M4 7H3V8V9V10V11V12H4V11V10V9V8V7Z" fill="#7DB682"/>
<path d="M3 7H2V8V9V10V11V12H3V11V10V9V8V7Z" fill="#26854C"/>
</svg>
