<svg width="15" height="15" viewBox="0 0 15 15" fill="none" xmlns="http://www.w3.org/2000/svg">
<path d="M7 0H6V1H7V0Z" fill="#162930"/>
<path d="M14 0H13V1H14V0Z" fill="#162930"/>
<path d="M8 8H7V9H8V8Z" fill="#26854C"/>
<path d="M10 8H9V9H10V8Z" fill="#26854C"/>
<path d="M4 14H3V15H4V14Z" fill="#26854C"/>
<path d="M5 14H4V15H5V14Z" fill="#7DB682"/>
<path d="M2 2H1V3V4V5V6V7V8H2V7V6V5V4V3V2Z" fill="#A6CB96"/>
<path d="M3 2H2V3V4V5V6V7V8H3V7V6V5V4V3V2Z" fill="#E6F6E6"/>
<path d="M4 2H3V3V4V5V6V7V8H4H5H6H7V7V6V5V4V3V2H6H5H4Z" fill="#D3EED3"/>
<path fill-rule="evenodd" clip-rule="evenodd" d="M10 7H9H8H7V8H8V9H7V8H6H5H4V9V10V11V12V13V14H5V15H6H7H8H9H10H11H12V14H13V13V12V11V10V9V8H12H11H10V9H9V8H10V7ZM5 10H6H7H8H9H10H11V11V12V13H10H9H8H7H6H5V12V11V10Z" fill="#62A477"/>
<path d="M6 10H5V11V12V13H6H7H8H9H10V12V11V10H9H8H7H6Z" fill="#10121C"/>
<path d="M11 10H10V11V12V13H11V12V11V10Z" fill="#26854C"/>
<path d="M3 8H2V9V10V11V12V13V14H3V13V12V11V10V9V8Z" fill="#26854C"/>
<path d="M4 8H3V9V10V11V12V13V14H4V13V12V11V10V9V8Z" fill="#7DB682"/>
<path d="M12 2H11V3V4V5V6V7V8H12H13H14V7V6V5V4V3V2H13H12Z" fill="#D3EED3"/>
<path d="M10 2H9V3V4V5V6V7H10V6V5V4V3V2Z" fill="#A6CB96"/>
<path d="M11 2H10V3V4V5V6V7V8H11V7V6V5V4V3V2Z" fill="#E6F6E6"/>
<path d="M14 0V1H13H12H11H10V2H11H12H13H14H15V1V0H14Z" fill="#1E4044"/>
<path d="M9 0V1V2H10V1V0H9Z" fill="#10514C"/>
<path d="M8 0V1V2H9V1V0H8Z" fill="#162930"/>
<path d="M7 0V1H6H5H4H3H2V2H3H4H5H6H7H8V1V0H7Z" fill="#1E4044"/>
<path d="M1 0V1V2H2V1V0H1Z" fill="#10514C"/>
<path d="M1 0H0V1V2H1V1V0Z" fill="#162930"/>
</svg>
